<svg width="12" height="11" viewBox="0 0 12 11" fill="none" xmlns="http://www.w3.org/2000/svg">
<path d="M0.724609 5.82747C0.724609 6.2055 1.04831 6.51036 1.43548 6.51036H5.32624V10.2479C5.32624 10.6199 5.64994 10.9308 6.03711 10.9308C6.42428 10.9308 6.74798 10.6199 6.74798 10.2479V6.51036H10.6387C11.0259 6.51036 11.3496 6.2055 11.3496 5.82747C11.3496 5.45554 11.0259 5.14459 10.6387 5.14459H6.74798V1.40701C6.74798 1.03508 6.42428 0.724121 6.03711 0.724121C5.64994 0.724121 5.32624 1.03508 5.32624 1.40701V5.14459H1.43548C1.04831 5.14459 0.724609 5.45554 0.724609 5.82747Z" fill="white"/>
</svg>
